<mxfile host="app.diagrams.net" agent="Mozilla/5.0 (Macintosh; Intel Mac OS X 10_15_7) AppleWebKit/537.36 (KHTML, like Gecko) Chrome/127.0.0.0 Safari/537.36" version="24.7.14">
  <diagram name="Page-1" id="929967ad-93f9-6ef4-fab6-5d389245f69c">
    <mxGraphModel dx="1593" dy="911" grid="1" gridSize="10" guides="1" tooltips="1" connect="1" arrows="1" fold="1" page="1" pageScale="1.5" pageWidth="1169" pageHeight="826" background="none" math="0" shadow="0">
      <root>
        <mxCell id="0" style=";html=1;" />
        <mxCell id="1" style=";html=1;" parent="0" />
        <mxCell id="1672d66443f91eb5-23" value="&lt;font style=&quot;font-size: 50px;&quot;&gt;DailyDigest Microservices Diagram &lt;span style=&quot;white-space: pre;&quot;&gt;&#x9;&lt;/span&gt;&lt;span style=&quot;white-space: pre;&quot;&gt;&#x9;&lt;/span&gt;30 Sep 2024&lt;/font&gt;" style="text;strokeColor=none;fillColor=none;html=1;fontSize=24;fontStyle=1;verticalAlign=middle;align=center;" parent="1" vertex="1">
          <mxGeometry x="120" y="40" width="1510" height="40" as="geometry" />
        </mxCell>
        <mxCell id="NSoWruO_xHm_NdwNPSy7-6" style="edgeStyle=orthogonalEdgeStyle;rounded=0;orthogonalLoop=1;jettySize=auto;html=1;entryX=0;entryY=0.5;entryDx=0;entryDy=0;shape=flexArrow;endArrow=none;endFill=0;fillColor=#fa6800;strokeColor=#C73500;movable=0;resizable=0;rotatable=0;deletable=0;editable=0;locked=1;connectable=0;" edge="1" parent="1" source="NSoWruO_xHm_NdwNPSy7-2" target="NSoWruO_xHm_NdwNPSy7-3">
          <mxGeometry relative="1" as="geometry" />
        </mxCell>
        <mxCell id="NSoWruO_xHm_NdwNPSy7-2" value="&lt;font style=&quot;font-size: 60px;&quot;&gt;UI&lt;/font&gt;&lt;div style=&quot;font-size: 60px;&quot;&gt;&lt;font style=&quot;font-size: 60px;&quot;&gt;UX&lt;/font&gt;&lt;/div&gt;" style="rounded=0;whiteSpace=wrap;html=1;fillColor=#fa6800;fontColor=#000000;strokeColor=#C73500;fillStyle=dashed;movable=0;resizable=0;rotatable=0;deletable=0;editable=0;locked=1;connectable=0;" vertex="1" parent="1">
          <mxGeometry x="90" y="270" width="110" height="890" as="geometry" />
        </mxCell>
        <mxCell id="NSoWruO_xHm_NdwNPSy7-3" value="&lt;span style=&quot;font-size: 60px;&quot;&gt;API&lt;/span&gt;&lt;div&gt;&lt;span style=&quot;font-size: 60px;&quot;&gt;Gate&lt;/span&gt;&lt;/div&gt;&lt;div&gt;&lt;span style=&quot;font-size: 60px;&quot;&gt;way&lt;/span&gt;&lt;/div&gt;" style="rounded=0;whiteSpace=wrap;html=1;fillColor=#fa6800;fontColor=#000000;strokeColor=#C73500;fillStyle=dashed;movable=0;resizable=0;rotatable=0;deletable=0;editable=0;locked=1;connectable=0;" vertex="1" parent="1">
          <mxGeometry x="330" y="270" width="150" height="890" as="geometry" />
        </mxCell>
        <mxCell id="NSoWruO_xHm_NdwNPSy7-4" value="" style="rounded=0;whiteSpace=wrap;html=1;fillColor=#fa6800;fontColor=#000000;strokeColor=#C73500;fillStyle=dashed;movable=0;resizable=0;rotatable=0;deletable=0;editable=0;locked=1;connectable=0;" vertex="1" parent="1">
          <mxGeometry x="610" y="260" width="940" height="900" as="geometry" />
        </mxCell>
        <mxCell id="NSoWruO_xHm_NdwNPSy7-8" style="edgeStyle=orthogonalEdgeStyle;rounded=0;orthogonalLoop=1;jettySize=auto;html=1;entryX=0;entryY=0.5;entryDx=0;entryDy=0;shape=flexArrow;endArrow=none;endFill=0;fillColor=#fa6800;strokeColor=#C73500;movable=0;resizable=0;rotatable=0;deletable=0;editable=0;locked=1;connectable=0;" edge="1" parent="1">
          <mxGeometry relative="1" as="geometry">
            <mxPoint x="480" y="709.3299999999999" as="sourcePoint" />
            <mxPoint x="610" y="709.3299999999999" as="targetPoint" />
          </mxGeometry>
        </mxCell>
        <mxCell id="NSoWruO_xHm_NdwNPSy7-24" style="edgeStyle=orthogonalEdgeStyle;rounded=0;orthogonalLoop=1;jettySize=auto;html=1;exitX=0.25;exitY=1;exitDx=0;exitDy=0;entryX=0.335;entryY=0.007;entryDx=0;entryDy=0;entryPerimeter=0;" edge="1" parent="1" source="NSoWruO_xHm_NdwNPSy7-9" target="NSoWruO_xHm_NdwNPSy7-10">
          <mxGeometry relative="1" as="geometry" />
        </mxCell>
        <mxCell id="NSoWruO_xHm_NdwNPSy7-9" value="Search Service" style="swimlane;whiteSpace=wrap;html=1;" vertex="1" parent="1">
          <mxGeometry x="675" y="296.88" width="110" height="133.12" as="geometry" />
        </mxCell>
        <mxCell id="NSoWruO_xHm_NdwNPSy7-25" style="edgeStyle=orthogonalEdgeStyle;rounded=0;orthogonalLoop=1;jettySize=auto;html=1;exitX=0.5;exitY=1;exitDx=0;exitDy=0;entryX=0.5;entryY=0;entryDx=0;entryDy=0;" edge="1" parent="1" source="NSoWruO_xHm_NdwNPSy7-10" target="NSoWruO_xHm_NdwNPSy7-11">
          <mxGeometry relative="1" as="geometry" />
        </mxCell>
        <mxCell id="NSoWruO_xHm_NdwNPSy7-10" value="Recommender Service" style="swimlane;whiteSpace=wrap;html=1;" vertex="1" parent="1">
          <mxGeometry x="650" y="570" width="160" height="170" as="geometry" />
        </mxCell>
        <mxCell id="NSoWruO_xHm_NdwNPSy7-11" value="&lt;font style=&quot;font-size: 18px;&quot;&gt;Notification Service&lt;/font&gt;" style="swimlane;whiteSpace=wrap;html=1;" vertex="1" parent="1">
          <mxGeometry x="630" y="860" width="200" height="170" as="geometry" />
        </mxCell>
        <mxCell id="NSoWruO_xHm_NdwNPSy7-28" style="edgeStyle=orthogonalEdgeStyle;rounded=0;orthogonalLoop=1;jettySize=auto;html=1;entryX=1;entryY=0.25;entryDx=0;entryDy=0;" edge="1" parent="1" source="NSoWruO_xHm_NdwNPSy7-12" target="NSoWruO_xHm_NdwNPSy7-11">
          <mxGeometry relative="1" as="geometry" />
        </mxCell>
        <mxCell id="NSoWruO_xHm_NdwNPSy7-12" value="&lt;font style=&quot;font-size: 18px;&quot;&gt;Commenting Service&lt;/font&gt;" style="swimlane;whiteSpace=wrap;html=1;" vertex="1" parent="1">
          <mxGeometry x="950" y="860" width="190" height="85" as="geometry" />
        </mxCell>
        <mxCell id="NSoWruO_xHm_NdwNPSy7-19" style="edgeStyle=orthogonalEdgeStyle;rounded=0;orthogonalLoop=1;jettySize=auto;html=1;exitX=0;exitY=0.5;exitDx=0;exitDy=0;entryX=1;entryY=0.5;entryDx=0;entryDy=0;strokeWidth=3;fillColor=#fa6800;strokeColor=#C73500;" edge="1" parent="1" source="NSoWruO_xHm_NdwNPSy7-14" target="NSoWruO_xHm_NdwNPSy7-9">
          <mxGeometry relative="1" as="geometry" />
        </mxCell>
        <mxCell id="NSoWruO_xHm_NdwNPSy7-14" value="ETL Service" style="swimlane;whiteSpace=wrap;html=1;" vertex="1" parent="1">
          <mxGeometry x="1050" y="298.44" width="185" height="130" as="geometry" />
        </mxCell>
        <mxCell id="NSoWruO_xHm_NdwNPSy7-23" style="edgeStyle=orthogonalEdgeStyle;rounded=0;orthogonalLoop=1;jettySize=auto;html=1;exitX=0;exitY=0.5;exitDx=0;exitDy=0;entryX=1;entryY=0.5;entryDx=0;entryDy=0;" edge="1" parent="1" source="NSoWruO_xHm_NdwNPSy7-15" target="NSoWruO_xHm_NdwNPSy7-10">
          <mxGeometry relative="1" as="geometry" />
        </mxCell>
        <mxCell id="NSoWruO_xHm_NdwNPSy7-15" value="Analytics Service" style="swimlane;whiteSpace=wrap;html=1;" vertex="1" parent="1">
          <mxGeometry x="900" y="592.5" width="130" height="125" as="geometry" />
        </mxCell>
        <mxCell id="NSoWruO_xHm_NdwNPSy7-22" style="edgeStyle=orthogonalEdgeStyle;rounded=0;orthogonalLoop=1;jettySize=auto;html=1;entryX=1;entryY=0.5;entryDx=0;entryDy=0;exitX=0.5;exitY=0;exitDx=0;exitDy=0;" edge="1" parent="1" source="NSoWruO_xHm_NdwNPSy7-16" target="NSoWruO_xHm_NdwNPSy7-17">
          <mxGeometry relative="1" as="geometry" />
        </mxCell>
        <mxCell id="NSoWruO_xHm_NdwNPSy7-26" style="edgeStyle=orthogonalEdgeStyle;rounded=0;orthogonalLoop=1;jettySize=auto;html=1;entryX=0.5;entryY=0;entryDx=0;entryDy=0;" edge="1" parent="1" target="NSoWruO_xHm_NdwNPSy7-13">
          <mxGeometry relative="1" as="geometry">
            <mxPoint x="1340" y="770" as="sourcePoint" />
          </mxGeometry>
        </mxCell>
        <mxCell id="NSoWruO_xHm_NdwNPSy7-27" style="edgeStyle=orthogonalEdgeStyle;rounded=0;orthogonalLoop=1;jettySize=auto;html=1;exitX=0.25;exitY=1;exitDx=0;exitDy=0;entryX=0.5;entryY=0;entryDx=0;entryDy=0;" edge="1" parent="1" source="NSoWruO_xHm_NdwNPSy7-16" target="NSoWruO_xHm_NdwNPSy7-12">
          <mxGeometry relative="1" as="geometry" />
        </mxCell>
        <mxCell id="NSoWruO_xHm_NdwNPSy7-16" value="Admin Panel" style="swimlane;whiteSpace=wrap;html=1;" vertex="1" parent="1">
          <mxGeometry x="1290" y="620" width="100" height="150" as="geometry" />
        </mxCell>
        <mxCell id="NSoWruO_xHm_NdwNPSy7-20" style="edgeStyle=orthogonalEdgeStyle;rounded=0;orthogonalLoop=1;jettySize=auto;html=1;exitX=0;exitY=0.25;exitDx=0;exitDy=0;entryX=0.5;entryY=0;entryDx=0;entryDy=0;" edge="1" parent="1" source="NSoWruO_xHm_NdwNPSy7-17" target="NSoWruO_xHm_NdwNPSy7-15">
          <mxGeometry relative="1" as="geometry" />
        </mxCell>
        <mxCell id="NSoWruO_xHm_NdwNPSy7-30" style="edgeStyle=orthogonalEdgeStyle;rounded=0;orthogonalLoop=1;jettySize=auto;html=1;exitX=0;exitY=0.25;exitDx=0;exitDy=0;entryX=0.75;entryY=0;entryDx=0;entryDy=0;" edge="1" parent="1" source="NSoWruO_xHm_NdwNPSy7-17" target="NSoWruO_xHm_NdwNPSy7-10">
          <mxGeometry relative="1" as="geometry" />
        </mxCell>
        <mxCell id="NSoWruO_xHm_NdwNPSy7-17" value="User Profile Service" style="swimlane;whiteSpace=wrap;html=1;" vertex="1" parent="1">
          <mxGeometry x="1070" y="470" width="142.5" height="120" as="geometry" />
        </mxCell>
        <mxCell id="NSoWruO_xHm_NdwNPSy7-29" style="edgeStyle=orthogonalEdgeStyle;rounded=0;orthogonalLoop=1;jettySize=auto;html=1;exitX=0;exitY=0.5;exitDx=0;exitDy=0;entryX=1;entryY=0.75;entryDx=0;entryDy=0;" edge="1" parent="1" source="NSoWruO_xHm_NdwNPSy7-13" target="NSoWruO_xHm_NdwNPSy7-11">
          <mxGeometry relative="1" as="geometry" />
        </mxCell>
        <mxCell id="NSoWruO_xHm_NdwNPSy7-13" value="&lt;font style=&quot;font-size: 18px;&quot;&gt;Liking Service&lt;/font&gt;" style="swimlane;whiteSpace=wrap;html=1;" vertex="1" parent="1">
          <mxGeometry x="1265" y="950" width="150" height="75" as="geometry" />
        </mxCell>
      </root>
    </mxGraphModel>
  </diagram>
</mxfile>
